<?xml version="1.0" encoding="UTF-8" standalone="no"?>
<svg
   xmlns:dc="http://purl.org/dc/elements/1.1/"
   xmlns:cc="http://creativecommons.org/ns#"
   xmlns:rdf="http://www.w3.org/1999/02/22-rdf-syntax-ns#"
   xmlns:svg="http://www.w3.org/2000/svg"
   xmlns="http://www.w3.org/2000/svg"
   xmlns:sodipodi="http://sodipodi.sourceforge.net/DTD/sodipodi-0.dtd"
   xmlns:inkscape="http://www.inkscape.org/namespaces/inkscape"
   version="1.0"
   width="408.53247pt"
   height="750pt"
   viewBox="0 0 408.53247 750"
   preserveAspectRatio="xMidYMid meet"
   id="svg16"
   sodipodi:docname="ABP_News.svg"
   inkscape:version="0.92.3 (2405546, 2018-03-11)">
  <metadata
     id="metadata22">
    <rdf:RDF>
      <cc:Work
         rdf:about="">
        <dc:format>image/svg+xml</dc:format>
        <dc:type
           rdf:resource="http://purl.org/dc/dcmitype/StillImage" />
      </cc:Work>
    </rdf:RDF>
  </metadata>
  <defs
     id="defs20" />
  <sodipodi:namedview
     pagecolor="#ffffff"
     bordercolor="#666666"
     borderopacity="1"
     objecttolerance="10"
     gridtolerance="10"
     guidetolerance="10"
     inkscape:pageopacity="0"
     inkscape:pageshadow="2"
     inkscape:window-width="1366"
     inkscape:window-height="705"
     id="namedview18"
     showgrid="false"
     inkscape:zoom="0.24583333"
     inkscape:cx="-278.83734"
     inkscape:cy="401.2324"
     inkscape:window-x="-8"
     inkscape:window-y="-8"
     inkscape:window-maximized="1"
     inkscape:current-layer="svg16" />
  <g
     transform="matrix(0.12447622,0,0,-0.12447622,-243.22552,823.53526)"
     id="g14"
     style="fill:#f00000;stroke:none">
    <path
       d="m 2772,5198 c -452,-782 -820,-1424 -818,-1426 2,-2 371,208 819,467 449,259 819,471 822,471 3,0 373,-212 822,-471 448,-259 817,-469 819,-467 3,3 -1626,2832 -1638,2844 -3,2 -375,-636 -826,-1418 z"
       id="path2"
       inkscape:connector-curvature="0" />
    <path
       d="m 3260,2890 v -450 h 65 c 36,0 65,3 65,8 0,4 9,22 20,40 l 21,34 43,-40 c 56,-51 101,-66 191,-60 197,13 320,186 293,416 -18,153 -124,268 -271,292 -89,14 -155,-6 -219,-68 l -38,-36 v 157 157 h -85 -85 z m 428,66 c 63,-33 102,-102 102,-181 0,-148 -136,-239 -260,-173 -53,29 -100,107 -100,168 0,77 43,154 102,183 41,20 120,22 156,3 z"
       id="path4"
       inkscape:connector-curvature="0" />
    <path
       d="m 2700,3130 c -183,-31 -292,-198 -269,-413 8,-76 59,-177 111,-222 118,-100 299,-100 387,0 l 30,34 26,-44 26,-45 h 59 60 v 340 340 h -85 -85 v -46 -47 l -19,25 c -26,32 -107,74 -156,80 -22,3 -60,2 -85,-2 z m 160,-179 c 53,-28 90,-87 97,-154 5,-48 2,-64 -21,-112 -37,-75 -94,-109 -171,-103 -106,9 -171,94 -163,213 4,70 34,121 92,156 41,25 120,25 166,0 z"
       id="path6"
       inkscape:connector-curvature="0" />
    <path
       d="m 4387,3129 c -52,-12 -87,-32 -121,-68 -17,-17 -32,-31 -35,-31 -3,0 -17,20 -30,45 l -24,45 h -58 -59 v -445 -445 h 85 85 v 146 147 l 43,-40 c 57,-52 102,-67 192,-61 122,8 210,70 263,187 62,134 36,326 -56,425 -71,76 -193,116 -285,95 z m 101,-173 c 63,-33 102,-102 102,-181 0,-148 -136,-239 -260,-173 -53,29 -100,107 -100,168 0,77 43,154 102,183 41,20 120,22 156,3 z"
       id="path8"
       inkscape:connector-curvature="0" />
    <path
       d="m 2460,1775 v -65 h 304 c 231,0 306,-3 313,-12 6,-7 16,-30 22,-51 17,-50 -8,-103 -64,-134 -38,-21 -52,-23 -231,-23 -250,0 -274,-9 -274,-98 0,-48 38,-105 106,-156 41,-32 54,-36 105,-36 h 59 v 80 80 h 78 77 l 22,-47 c 32,-71 86,-128 151,-160 49,-24 69,-28 142,-28 61,0 94,5 119,18 19,9 38,17 43,17 4,0 8,-36 8,-80 v -80 l -36,-15 c -79,-33 -117,-77 -135,-155 -19,-82 39,-193 118,-227 45,-18 150,-16 195,5 l 38,17 -27,58 c -20,45 -30,56 -42,51 -9,-4 -35,-9 -58,-12 -72,-7 -107,54 -63,111 28,35 79,44 135,23 42,-17 126,-90 213,-189 47,-52 47,-52 107,1 l 37,33 -26,34 c -63,82 -193,202 -248,229 l -58,28 v 359 359 h 415 415 v -85 -85 h -190 -191 l 3,-57 c 3,-51 6,-58 25,-61 12,-2 36,-16 53,-32 23,-22 30,-36 30,-67 0,-56 -31,-83 -95,-83 -43,0 -52,4 -85,39 -29,31 -45,63 -75,155 l -39,117 -30,-6 c -17,-4 -47,-11 -68,-16 l -36,-9 14,-63 c 42,-183 109,-293 209,-342 31,-16 61,-20 131,-20 82,0 94,3 133,28 89,59 111,151 65,265 -4,9 13,12 70,12 h 76 V 1180 960 h 80 80 v 375 375 h 75 75 v 65 65 H 3595 2460 Z m 978,-180 c 5,-188 -10,-247 -80,-298 -33,-25 -117,-34 -158,-17 -28,12 -90,72 -90,88 0,4 21,20 46,36 87,55 123,152 90,246 -9,25 -16,49 -16,53 0,4 46,6 103,5 l 102,-3 z"
       id="path10"
       inkscape:connector-curvature="0" />
    <path
       d="m 4064,966 c -38,-38 -43,-70 -19,-116 31,-59 107,-69 156,-21 48,49 38,125 -21,156 -46,24 -78,19 -116,-19 z"
       id="path12"
       inkscape:connector-curvature="0" />
  </g>
</svg>
